<svg xmlns="http://www.w3.org/2000/svg" viewBox="0 0 24 24" width="24" height="24" color="#000000" fill="none">
    <defs />
    <path fill="#141B34" d="M17.488,19.253 C16.657,19.253 15.814,18.848 14.61,18.271 L14.604,18.268 L13.75,17.858 C13.747,19.048 13.721,19.687 13.414,20.183 C12.999,20.854 12.28,21.25 11.504,21.25 L11.503,21.25 C11.435,21.25 11.366,21.247 11.297,21.241 C10.662,21.184 10.092,20.757 8.956,19.905 L7.75,19 C6.586,18.127 6.25,17.454 6.25,16 L6.25,15.069 C6.175,15.083 6.109,15.093 6.044,15.1 C5.066,15.212 4.144,14.934 3.452,14.317 C2.688,13.636 2.25,12.594 2.25,11.458 L2.25,10.546 C2.25,9.41 2.688,8.368 3.452,7.687 C4.144,7.07 5.066,6.792 6.048,6.905 C6.233,6.925 6.43,6.969 6.822,7.057 C7.212,7.145 7.592,7.102 7.951,6.93 L14.602,3.736 L14.927,4.412 L14.605,3.735 L14.611,3.732 C16.206,2.967 17.17,2.504 18.308,2.887 C19.461,3.274 19.864,4.12 20.474,5.399 L20.474,5.4 C22.171,8.959 22.171,13.042 20.474,16.601 L20.474,16.602 C19.864,17.881 19.461,18.727 18.308,19.114 C18.028,19.208 17.759,19.251 17.488,19.251 Z M8.25,13.577 C8.368,13.618 8.485,13.665 8.599,13.72 L15.252,16.914 C16.751,17.633 17.296,17.873 17.83,17.693 C18.357,17.516 18.546,17.161 19.12,15.956 C20.621,12.807 20.621,9.194 19.12,6.045 C18.546,4.84 18.357,4.485 17.83,4.308 C17.295,4.128 16.75,4.368 15.253,5.086 L14.926,4.411 L15.251,5.087 L8.599,8.281 C8.485,8.336 8.368,8.384 8.25,8.424 Z M6.75,13.434 L6.75,8.566 C6.664,8.554 6.579,8.538 6.493,8.519 L6.471,8.514 C6.168,8.446 5.985,8.405 5.881,8.394 C5.31,8.329 4.829,8.467 4.45,8.805 C4.005,9.202 3.75,9.836 3.75,10.545 L3.75,11.457 C3.75,12.166 4.005,12.8 4.45,13.197 C4.829,13.535 5.309,13.673 5.876,13.608 C5.986,13.596 6.177,13.553 6.492,13.482 C6.578,13.463 6.664,13.447 6.75,13.434 Z M7.95,15.073 C7.884,15.042 7.817,15.014 7.75,14.991 L7.75,16 C7.75,16.988 7.859,17.207 8.65,17.8 L9.85,18.7 L9.854,18.703 C10.591,19.256 11.221,19.728 11.432,19.747 C11.717,19.773 11.988,19.638 12.138,19.394 C12.25,19.213 12.25,18.419 12.25,17.5 L12.25,17.138 Z" />
</svg>